<mxfile host="Electron" modified="2024-04-22T13:32:46.253Z" agent="Mozilla/5.0 (X11; Linux x86_64) AppleWebKit/537.36 (KHTML, like Gecko) draw.io/24.1.0 Chrome/120.0.6099.291 Electron/28.3.1 Safari/537.36" etag="OjQ3nrNWaz_JaNX3EduB" version="24.1.0" type="device">
  <diagram name="Pagina-1" id="bZNuDVQKegFYLx4exZVK">
    <mxGraphModel dx="706" dy="546" grid="1" gridSize="10" guides="1" tooltips="1" connect="1" arrows="1" fold="1" page="1" pageScale="1" pageWidth="827" pageHeight="1169" math="0" shadow="0">
      <root>
        <mxCell id="0" />
        <mxCell id="1" parent="0" />
        <mxCell id="xP9YJikHqoznOqZrXmcU-18" style="edgeStyle=orthogonalEdgeStyle;rounded=1;orthogonalLoop=1;jettySize=auto;html=1;exitX=0.5;exitY=1;exitDx=0;exitDy=0;endArrow=halfCircle;endFill=0;curved=0;fillColor=#1ba1e2;strokeColor=#006EAF;" edge="1" parent="1" source="xP9YJikHqoznOqZrXmcU-1" target="xP9YJikHqoznOqZrXmcU-14">
          <mxGeometry relative="1" as="geometry">
            <Array as="points">
              <mxPoint x="170" y="750" />
              <mxPoint x="280" y="750" />
            </Array>
          </mxGeometry>
        </mxCell>
        <mxCell id="xP9YJikHqoznOqZrXmcU-81" style="edgeStyle=orthogonalEdgeStyle;rounded=0;orthogonalLoop=1;jettySize=auto;html=1;exitX=0.25;exitY=1;exitDx=0;exitDy=0;endArrow=halfCircle;endFill=0;" edge="1" parent="1" source="xP9YJikHqoznOqZrXmcU-1">
          <mxGeometry relative="1" as="geometry">
            <mxPoint x="125" y="780" as="targetPoint" />
          </mxGeometry>
        </mxCell>
        <mxCell id="xP9YJikHqoznOqZrXmcU-82" value="OpenRouteService" style="edgeLabel;html=1;align=center;verticalAlign=middle;resizable=0;points=[];" vertex="1" connectable="0" parent="xP9YJikHqoznOqZrXmcU-81">
          <mxGeometry x="0.897" y="7" relative="1" as="geometry">
            <mxPoint x="-7" y="13" as="offset" />
          </mxGeometry>
        </mxCell>
        <mxCell id="xP9YJikHqoznOqZrXmcU-1" value="«microservice»&lt;br&gt;&lt;b&gt;Public Server&lt;/b&gt;" style="html=1;dropTarget=0;whiteSpace=wrap;" vertex="1" parent="1">
          <mxGeometry x="80" y="600" width="180" height="90" as="geometry" />
        </mxCell>
        <mxCell id="xP9YJikHqoznOqZrXmcU-2" value="" style="shape=module;jettyWidth=8;jettyHeight=4;" vertex="1" parent="xP9YJikHqoznOqZrXmcU-1">
          <mxGeometry x="1" width="20" height="20" relative="1" as="geometry">
            <mxPoint x="-27" y="7" as="offset" />
          </mxGeometry>
        </mxCell>
        <mxCell id="xP9YJikHqoznOqZrXmcU-3" value="«microservice»&lt;br&gt;&lt;b&gt;Notification Server&lt;/b&gt;" style="html=1;dropTarget=0;whiteSpace=wrap;" vertex="1" parent="1">
          <mxGeometry x="340" y="600" width="180" height="90" as="geometry" />
        </mxCell>
        <mxCell id="xP9YJikHqoznOqZrXmcU-4" value="" style="shape=module;jettyWidth=8;jettyHeight=4;" vertex="1" parent="xP9YJikHqoznOqZrXmcU-3">
          <mxGeometry x="1" width="20" height="20" relative="1" as="geometry">
            <mxPoint x="-27" y="7" as="offset" />
          </mxGeometry>
        </mxCell>
        <mxCell id="xP9YJikHqoznOqZrXmcU-30" style="edgeStyle=orthogonalEdgeStyle;rounded=1;orthogonalLoop=1;jettySize=auto;html=1;exitX=0.25;exitY=1;exitDx=0;exitDy=0;curved=0;endArrow=halfCircle;endFill=0;fillColor=#60a917;strokeColor=#2D7600;" edge="1" parent="1" source="xP9YJikHqoznOqZrXmcU-5" target="xP9YJikHqoznOqZrXmcU-27">
          <mxGeometry relative="1" as="geometry">
            <mxPoint x="430" y="480" as="targetPoint" />
            <Array as="points">
              <mxPoint x="645" y="730" />
              <mxPoint x="580" y="730" />
            </Array>
          </mxGeometry>
        </mxCell>
        <mxCell id="xP9YJikHqoznOqZrXmcU-5" value="«microservice»&lt;br&gt;&lt;b&gt;Management Server&lt;/b&gt;" style="html=1;dropTarget=0;whiteSpace=wrap;" vertex="1" parent="1">
          <mxGeometry x="600" y="600" width="180" height="90" as="geometry" />
        </mxCell>
        <mxCell id="xP9YJikHqoznOqZrXmcU-6" value="" style="shape=module;jettyWidth=8;jettyHeight=4;" vertex="1" parent="xP9YJikHqoznOqZrXmcU-5">
          <mxGeometry x="1" width="20" height="20" relative="1" as="geometry">
            <mxPoint x="-27" y="7" as="offset" />
          </mxGeometry>
        </mxCell>
        <mxCell id="xP9YJikHqoznOqZrXmcU-7" value="«database»&lt;br&gt;&lt;b&gt;MongoDB&lt;/b&gt;" style="html=1;dropTarget=0;whiteSpace=wrap;" vertex="1" parent="1">
          <mxGeometry x="190" y="840" width="180" height="90" as="geometry" />
        </mxCell>
        <mxCell id="xP9YJikHqoznOqZrXmcU-8" value="" style="shape=module;jettyWidth=8;jettyHeight=4;" vertex="1" parent="xP9YJikHqoznOqZrXmcU-7">
          <mxGeometry x="1" width="20" height="20" relative="1" as="geometry">
            <mxPoint x="-27" y="7" as="offset" />
          </mxGeometry>
        </mxCell>
        <mxCell id="xP9YJikHqoznOqZrXmcU-12" value="" style="rounded=1;orthogonalLoop=1;jettySize=auto;html=1;endArrow=halfCircle;endFill=0;endSize=6;strokeWidth=1;sketch=0;exitX=0.5;exitY=1;exitDx=0;exitDy=0;curved=0;fillColor=#1ba1e2;strokeColor=#006EAF;" edge="1" target="xP9YJikHqoznOqZrXmcU-14" parent="1" source="xP9YJikHqoznOqZrXmcU-5">
          <mxGeometry relative="1" as="geometry">
            <mxPoint x="420" y="695" as="sourcePoint" />
            <Array as="points">
              <mxPoint x="690" y="750" />
              <mxPoint x="280" y="750" />
            </Array>
          </mxGeometry>
        </mxCell>
        <mxCell id="xP9YJikHqoznOqZrXmcU-13" value="" style="rounded=0;orthogonalLoop=1;jettySize=auto;html=1;endArrow=oval;endFill=0;sketch=0;sourcePerimeterSpacing=0;targetPerimeterSpacing=0;endSize=10;exitX=0.5;exitY=0;exitDx=0;exitDy=0;fillColor=#1ba1e2;strokeColor=#006EAF;" edge="1" target="xP9YJikHqoznOqZrXmcU-14" parent="1" source="xP9YJikHqoznOqZrXmcU-7">
          <mxGeometry relative="1" as="geometry">
            <mxPoint x="380" y="695" as="sourcePoint" />
          </mxGeometry>
        </mxCell>
        <mxCell id="xP9YJikHqoznOqZrXmcU-15" value="Query" style="edgeLabel;html=1;align=center;verticalAlign=middle;resizable=0;points=[];" vertex="1" connectable="0" parent="xP9YJikHqoznOqZrXmcU-13">
          <mxGeometry x="-0.2804" y="-2" relative="1" as="geometry">
            <mxPoint x="28" y="-29" as="offset" />
          </mxGeometry>
        </mxCell>
        <mxCell id="xP9YJikHqoznOqZrXmcU-14" value="" style="ellipse;whiteSpace=wrap;html=1;align=center;aspect=fixed;fillColor=none;strokeColor=none;resizable=0;perimeter=centerPerimeter;rotatable=0;allowArrows=0;points=[];outlineConnect=1;" vertex="1" parent="1">
          <mxGeometry x="275" y="790" width="10" height="10" as="geometry" />
        </mxCell>
        <mxCell id="xP9YJikHqoznOqZrXmcU-19" style="edgeStyle=orthogonalEdgeStyle;rounded=1;orthogonalLoop=1;jettySize=auto;html=1;exitX=0.5;exitY=1;exitDx=0;exitDy=0;entryX=0.753;entryY=0.329;entryDx=0;entryDy=0;entryPerimeter=0;curved=0;endArrow=halfCircle;endFill=0;fillColor=#1ba1e2;strokeColor=#006EAF;" edge="1" parent="1" source="xP9YJikHqoznOqZrXmcU-3" target="xP9YJikHqoznOqZrXmcU-14">
          <mxGeometry relative="1" as="geometry">
            <Array as="points">
              <mxPoint x="430" y="750" />
              <mxPoint x="280" y="750" />
            </Array>
          </mxGeometry>
        </mxCell>
        <mxCell id="xP9YJikHqoznOqZrXmcU-20" value="«lib»&lt;br&gt;&lt;b&gt;Authentication SDK&lt;/b&gt;" style="html=1;dropTarget=0;whiteSpace=wrap;" vertex="1" parent="1">
          <mxGeometry x="490" y="840" width="180" height="90" as="geometry" />
        </mxCell>
        <mxCell id="xP9YJikHqoznOqZrXmcU-21" value="" style="shape=module;jettyWidth=8;jettyHeight=4;" vertex="1" parent="xP9YJikHqoznOqZrXmcU-20">
          <mxGeometry x="1" width="20" height="20" relative="1" as="geometry">
            <mxPoint x="-27" y="7" as="offset" />
          </mxGeometry>
        </mxCell>
        <mxCell id="xP9YJikHqoznOqZrXmcU-24" value="" style="ellipse;whiteSpace=wrap;html=1;align=center;aspect=fixed;fillColor=none;strokeColor=none;resizable=0;perimeter=centerPerimeter;rotatable=0;allowArrows=0;points=[];outlineConnect=1;" vertex="1" parent="1">
          <mxGeometry x="385" y="580" width="10" height="10" as="geometry" />
        </mxCell>
        <mxCell id="xP9YJikHqoznOqZrXmcU-26" value="" style="rounded=1;orthogonalLoop=1;jettySize=auto;html=1;endArrow=oval;endFill=0;sketch=0;sourcePerimeterSpacing=0;targetPerimeterSpacing=0;endSize=10;exitX=0.5;exitY=0;exitDx=0;exitDy=0;curved=0;fillColor=#60a917;strokeColor=#2D7600;" edge="1" target="xP9YJikHqoznOqZrXmcU-27" parent="1" source="xP9YJikHqoznOqZrXmcU-20">
          <mxGeometry relative="1" as="geometry">
            <mxPoint x="350" y="615" as="sourcePoint" />
            <Array as="points">
              <mxPoint x="580" y="800" />
            </Array>
          </mxGeometry>
        </mxCell>
        <mxCell id="xP9YJikHqoznOqZrXmcU-28" value="Token Validation" style="edgeLabel;html=1;align=center;verticalAlign=middle;resizable=0;points=[];" vertex="1" connectable="0" parent="xP9YJikHqoznOqZrXmcU-26">
          <mxGeometry x="-0.3129" y="1" relative="1" as="geometry">
            <mxPoint x="51" y="-30" as="offset" />
          </mxGeometry>
        </mxCell>
        <mxCell id="xP9YJikHqoznOqZrXmcU-27" value="" style="ellipse;whiteSpace=wrap;html=1;align=center;aspect=fixed;fillColor=none;strokeColor=none;resizable=0;perimeter=centerPerimeter;rotatable=0;allowArrows=0;points=[];outlineConnect=1;" vertex="1" parent="1">
          <mxGeometry x="575" y="790" width="10" height="10" as="geometry" />
        </mxCell>
        <mxCell id="xP9YJikHqoznOqZrXmcU-29" style="edgeStyle=orthogonalEdgeStyle;rounded=1;orthogonalLoop=1;jettySize=auto;html=1;exitX=0.75;exitY=1;exitDx=0;exitDy=0;entryX=0.518;entryY=2;entryDx=0;entryDy=0;entryPerimeter=0;curved=0;endArrow=halfCircle;endFill=0;fillColor=#60a917;strokeColor=#2D7600;" edge="1" parent="1" source="xP9YJikHqoznOqZrXmcU-3" target="xP9YJikHqoznOqZrXmcU-27">
          <mxGeometry relative="1" as="geometry">
            <Array as="points">
              <mxPoint x="475" y="730" />
              <mxPoint x="580" y="730" />
            </Array>
          </mxGeometry>
        </mxCell>
        <mxCell id="xP9YJikHqoznOqZrXmcU-31" style="edgeStyle=orthogonalEdgeStyle;rounded=1;orthogonalLoop=1;jettySize=auto;html=1;exitX=0.75;exitY=1;exitDx=0;exitDy=0;entryX=0.5;entryY=0;entryDx=0;entryDy=0;entryPerimeter=0;curved=0;endArrow=halfCircle;endFill=0;fillColor=#60a917;strokeColor=#2D7600;" edge="1" parent="1" source="xP9YJikHqoznOqZrXmcU-1" target="xP9YJikHqoznOqZrXmcU-27">
          <mxGeometry relative="1" as="geometry">
            <Array as="points">
              <mxPoint x="215" y="730" />
              <mxPoint x="580" y="730" />
            </Array>
          </mxGeometry>
        </mxCell>
        <mxCell id="xP9YJikHqoznOqZrXmcU-32" value="" style="rounded=0;orthogonalLoop=1;jettySize=auto;html=1;endArrow=halfCircle;endFill=0;endSize=6;strokeWidth=1;sketch=0;exitX=0;exitY=0.5;exitDx=0;exitDy=0;entryX=0.992;entryY=0.346;entryDx=0;entryDy=0;entryPerimeter=0;" edge="1" target="xP9YJikHqoznOqZrXmcU-34" parent="1" source="xP9YJikHqoznOqZrXmcU-5">
          <mxGeometry relative="1" as="geometry">
            <mxPoint x="600" y="655" as="sourcePoint" />
          </mxGeometry>
        </mxCell>
        <mxCell id="xP9YJikHqoznOqZrXmcU-36" value="" style="rounded=0;orthogonalLoop=1;jettySize=auto;html=1;endArrow=halfCircle;endFill=0;endSize=6;strokeWidth=1;sketch=0;fontSize=12;curved=1;" edge="1" target="xP9YJikHqoznOqZrXmcU-37" parent="1">
          <mxGeometry relative="1" as="geometry">
            <mxPoint x="580" y="930" as="sourcePoint" />
          </mxGeometry>
        </mxCell>
        <mxCell id="xP9YJikHqoznOqZrXmcU-38" value="Identity Provider" style="edgeLabel;html=1;align=center;verticalAlign=middle;resizable=0;points=[];" vertex="1" connectable="0" parent="xP9YJikHqoznOqZrXmcU-36">
          <mxGeometry x="-0.4579" y="-1" relative="1" as="geometry">
            <mxPoint x="51" y="21" as="offset" />
          </mxGeometry>
        </mxCell>
        <mxCell id="xP9YJikHqoznOqZrXmcU-37" value="" style="ellipse;whiteSpace=wrap;html=1;align=left;aspect=fixed;fillColor=none;strokeColor=none;resizable=0;perimeter=centerPerimeter;rotatable=0;allowArrows=0;points=[];outlineConnect=1;labelPosition=right;verticalLabelPosition=middle;verticalAlign=middle;" vertex="1" parent="1">
          <mxGeometry x="575" y="960" width="10" height="10" as="geometry" />
        </mxCell>
        <mxCell id="xP9YJikHqoznOqZrXmcU-41" value="" style="rounded=0;orthogonalLoop=1;jettySize=auto;html=1;endArrow=oval;endFill=0;sketch=0;sourcePerimeterSpacing=0;targetPerimeterSpacing=0;endSize=10;exitX=1;exitY=0.5;exitDx=0;exitDy=0;" edge="1" parent="1" target="xP9YJikHqoznOqZrXmcU-34">
          <mxGeometry relative="1" as="geometry">
            <mxPoint x="520" y="645" as="sourcePoint" />
            <mxPoint x="565" y="645" as="targetPoint" />
          </mxGeometry>
        </mxCell>
        <mxCell id="xP9YJikHqoznOqZrXmcU-42" value="Event&lt;div&gt;Modification&lt;/div&gt;" style="edgeLabel;html=1;align=center;verticalAlign=middle;resizable=0;points=[];" vertex="1" connectable="0" parent="xP9YJikHqoznOqZrXmcU-41">
          <mxGeometry x="-0.0901" y="1" relative="1" as="geometry">
            <mxPoint x="25" y="26" as="offset" />
          </mxGeometry>
        </mxCell>
        <mxCell id="xP9YJikHqoznOqZrXmcU-34" value="" style="ellipse;whiteSpace=wrap;html=1;align=center;aspect=fixed;fillColor=none;strokeColor=none;resizable=0;perimeter=centerPerimeter;rotatable=0;allowArrows=0;points=[];outlineConnect=1;" vertex="1" parent="1">
          <mxGeometry x="550" y="640" width="10" height="10" as="geometry" />
        </mxCell>
        <mxCell id="xP9YJikHqoznOqZrXmcU-50" value="" style="rounded=1;orthogonalLoop=1;jettySize=auto;html=1;endArrow=oval;endFill=0;sketch=0;sourcePerimeterSpacing=0;targetPerimeterSpacing=0;endSize=10;exitX=0.5;exitY=0;exitDx=0;exitDy=0;edgeStyle=orthogonalEdgeStyle;curved=0;startArrow=box;startFill=0;" edge="1" parent="1" source="xP9YJikHqoznOqZrXmcU-1">
          <mxGeometry relative="1" as="geometry">
            <mxPoint x="160" y="600" as="sourcePoint" />
            <mxPoint x="140" y="560" as="targetPoint" />
            <Array as="points">
              <mxPoint x="170" y="560" />
            </Array>
          </mxGeometry>
        </mxCell>
        <mxCell id="xP9YJikHqoznOqZrXmcU-62" value="Dettagli evento" style="edgeLabel;html=1;align=center;verticalAlign=middle;resizable=0;points=[];" vertex="1" connectable="0" parent="xP9YJikHqoznOqZrXmcU-50">
          <mxGeometry x="1" y="1" relative="1" as="geometry">
            <mxPoint x="-46" as="offset" />
          </mxGeometry>
        </mxCell>
        <mxCell id="xP9YJikHqoznOqZrXmcU-55" value="" style="rounded=0;orthogonalLoop=1;jettySize=auto;html=1;endArrow=oval;endFill=0;sketch=0;sourcePerimeterSpacing=0;targetPerimeterSpacing=0;endSize=10;exitX=0.5;exitY=0;exitDx=0;exitDy=0;startArrow=box;startFill=0;" edge="1" parent="1" source="xP9YJikHqoznOqZrXmcU-3">
          <mxGeometry relative="1" as="geometry">
            <mxPoint x="440" y="600" as="sourcePoint" />
            <mxPoint x="430" y="560" as="targetPoint" />
          </mxGeometry>
        </mxCell>
        <mxCell id="xP9YJikHqoznOqZrXmcU-57" value="Register listener" style="edgeLabel;html=1;align=center;verticalAlign=middle;resizable=0;points=[];" vertex="1" connectable="0" parent="xP9YJikHqoznOqZrXmcU-55">
          <mxGeometry x="-0.4" relative="1" as="geometry">
            <mxPoint y="-43" as="offset" />
          </mxGeometry>
        </mxCell>
        <mxCell id="xP9YJikHqoznOqZrXmcU-118" value="Web API" style="edgeLabel;html=1;align=center;verticalAlign=middle;resizable=0;points=[];" vertex="1" connectable="0" parent="xP9YJikHqoznOqZrXmcU-55">
          <mxGeometry x="-0.15" y="1" relative="1" as="geometry">
            <mxPoint y="27" as="offset" />
          </mxGeometry>
        </mxCell>
        <mxCell id="xP9YJikHqoznOqZrXmcU-58" value="" style="rounded=1;orthogonalLoop=1;jettySize=auto;html=1;endArrow=oval;endFill=0;sketch=0;sourcePerimeterSpacing=0;targetPerimeterSpacing=0;endSize=10;exitX=0.5;exitY=0;exitDx=0;exitDy=0;edgeStyle=orthogonalEdgeStyle;curved=0;labelPosition=right;verticalLabelPosition=middle;align=left;verticalAlign=middle;startArrow=box;startFill=0;" edge="1" parent="1" source="xP9YJikHqoznOqZrXmcU-1">
          <mxGeometry relative="1" as="geometry">
            <mxPoint x="190" y="600" as="sourcePoint" />
            <mxPoint x="200" y="560" as="targetPoint" />
            <Array as="points">
              <mxPoint x="170" y="560" />
            </Array>
          </mxGeometry>
        </mxCell>
        <mxCell id="xP9YJikHqoznOqZrXmcU-61" value="Lista eventi" style="edgeLabel;html=1;align=center;verticalAlign=middle;resizable=0;points=[];" vertex="1" connectable="0" parent="xP9YJikHqoznOqZrXmcU-58">
          <mxGeometry x="1" y="-7" relative="1" as="geometry">
            <mxPoint x="34" y="-7" as="offset" />
          </mxGeometry>
        </mxCell>
        <mxCell id="xP9YJikHqoznOqZrXmcU-63" value="" style="rounded=1;orthogonalLoop=1;jettySize=auto;html=1;endArrow=oval;endFill=0;sketch=0;sourcePerimeterSpacing=0;targetPerimeterSpacing=0;endSize=10;exitX=0.5;exitY=0;exitDx=0;exitDy=0;edgeStyle=orthogonalEdgeStyle;curved=0;startArrow=box;startFill=0;" edge="1" parent="1" source="xP9YJikHqoznOqZrXmcU-1">
          <mxGeometry relative="1" as="geometry">
            <mxPoint x="170" y="585" as="sourcePoint" />
            <mxPoint x="140" y="545" as="targetPoint" />
            <Array as="points">
              <mxPoint x="170" y="545" />
            </Array>
          </mxGeometry>
        </mxCell>
        <mxCell id="xP9YJikHqoznOqZrXmcU-64" value="Calcolo percorso" style="edgeLabel;html=1;align=center;verticalAlign=middle;resizable=0;points=[];" vertex="1" connectable="0" parent="xP9YJikHqoznOqZrXmcU-63">
          <mxGeometry x="1" y="1" relative="1" as="geometry">
            <mxPoint x="-50" as="offset" />
          </mxGeometry>
        </mxCell>
        <mxCell id="xP9YJikHqoznOqZrXmcU-65" value="" style="rounded=1;orthogonalLoop=1;jettySize=auto;html=1;endArrow=oval;endFill=0;sketch=0;sourcePerimeterSpacing=0;targetPerimeterSpacing=0;endSize=10;exitX=0.5;exitY=0;exitDx=0;exitDy=0;edgeStyle=orthogonalEdgeStyle;curved=0;labelPosition=right;verticalLabelPosition=middle;align=left;verticalAlign=middle;startArrow=box;startFill=0;" edge="1" parent="1" source="xP9YJikHqoznOqZrXmcU-1">
          <mxGeometry relative="1" as="geometry">
            <mxPoint x="170" y="585" as="sourcePoint" />
            <mxPoint x="200" y="545" as="targetPoint" />
            <Array as="points">
              <mxPoint x="170" y="545" />
            </Array>
          </mxGeometry>
        </mxCell>
        <mxCell id="xP9YJikHqoznOqZrXmcU-66" value="Gestione zone di interesse" style="edgeLabel;html=1;align=center;verticalAlign=middle;resizable=0;points=[];" vertex="1" connectable="0" parent="xP9YJikHqoznOqZrXmcU-65">
          <mxGeometry x="1" y="-7" relative="1" as="geometry">
            <mxPoint x="71" y="-7" as="offset" />
          </mxGeometry>
        </mxCell>
        <mxCell id="xP9YJikHqoznOqZrXmcU-68" value="Web API" style="edgeLabel;html=1;align=center;verticalAlign=middle;resizable=0;points=[];" vertex="1" connectable="0" parent="xP9YJikHqoznOqZrXmcU-65">
          <mxGeometry x="-0.6" y="-2" relative="1" as="geometry">
            <mxPoint x="-2" y="27" as="offset" />
          </mxGeometry>
        </mxCell>
        <mxCell id="xP9YJikHqoznOqZrXmcU-73" value="" style="rounded=1;orthogonalLoop=1;jettySize=auto;html=1;endArrow=oval;endFill=0;sketch=0;sourcePerimeterSpacing=0;targetPerimeterSpacing=0;endSize=10;edgeStyle=orthogonalEdgeStyle;curved=0;startArrow=box;startFill=0;" edge="1" parent="1">
          <mxGeometry relative="1" as="geometry">
            <mxPoint x="170" y="600" as="sourcePoint" />
            <mxPoint x="140" y="530" as="targetPoint" />
            <Array as="points">
              <mxPoint x="170" y="530" />
            </Array>
          </mxGeometry>
        </mxCell>
        <mxCell id="xP9YJikHqoznOqZrXmcU-74" value="Gestione preferenze" style="edgeLabel;html=1;align=center;verticalAlign=middle;resizable=0;points=[];" vertex="1" connectable="0" parent="xP9YJikHqoznOqZrXmcU-73">
          <mxGeometry x="1" y="1" relative="1" as="geometry">
            <mxPoint x="-58" as="offset" />
          </mxGeometry>
        </mxCell>
        <mxCell id="xP9YJikHqoznOqZrXmcU-75" value="" style="rounded=1;orthogonalLoop=1;jettySize=auto;html=1;endArrow=oval;endFill=0;sketch=0;sourcePerimeterSpacing=0;targetPerimeterSpacing=0;endSize=10;edgeStyle=orthogonalEdgeStyle;curved=0;labelPosition=right;verticalLabelPosition=middle;align=left;verticalAlign=middle;startArrow=box;startFill=0;" edge="1" parent="1">
          <mxGeometry relative="1" as="geometry">
            <mxPoint x="170" y="600" as="sourcePoint" />
            <mxPoint x="200" y="530" as="targetPoint" />
            <Array as="points">
              <mxPoint x="170" y="530" />
            </Array>
          </mxGeometry>
        </mxCell>
        <mxCell id="xP9YJikHqoznOqZrXmcU-76" value="Gestione categorie di interesse" style="edgeLabel;html=1;align=center;verticalAlign=middle;resizable=0;points=[];" vertex="1" connectable="0" parent="xP9YJikHqoznOqZrXmcU-75">
          <mxGeometry x="1" y="-7" relative="1" as="geometry">
            <mxPoint x="82" y="-7" as="offset" />
          </mxGeometry>
        </mxCell>
        <mxCell id="xP9YJikHqoznOqZrXmcU-77" value="" style="rounded=1;orthogonalLoop=1;jettySize=auto;html=1;endArrow=oval;endFill=0;sketch=0;sourcePerimeterSpacing=0;targetPerimeterSpacing=0;endSize=10;edgeStyle=orthogonalEdgeStyle;curved=0;labelPosition=right;verticalLabelPosition=middle;align=left;verticalAlign=middle;startArrow=box;startFill=0;" edge="1" parent="1">
          <mxGeometry relative="1" as="geometry">
            <mxPoint x="170" y="600" as="sourcePoint" />
            <mxPoint x="170" y="515" as="targetPoint" />
            <Array as="points">
              <mxPoint x="170" y="515" />
            </Array>
          </mxGeometry>
        </mxCell>
        <mxCell id="xP9YJikHqoznOqZrXmcU-78" value="Eliminazione account" style="edgeLabel;html=1;align=center;verticalAlign=middle;resizable=0;points=[];" vertex="1" connectable="0" parent="xP9YJikHqoznOqZrXmcU-77">
          <mxGeometry x="1" y="-7" relative="1" as="geometry">
            <mxPoint x="53" y="-2" as="offset" />
          </mxGeometry>
        </mxCell>
        <mxCell id="xP9YJikHqoznOqZrXmcU-98" value="" style="rounded=1;orthogonalLoop=1;jettySize=auto;html=1;endArrow=oval;endFill=0;sketch=0;sourcePerimeterSpacing=0;targetPerimeterSpacing=0;endSize=10;exitX=0.5;exitY=0;exitDx=0;exitDy=0;edgeStyle=orthogonalEdgeStyle;curved=0;startArrow=box;startFill=0;" edge="1" parent="1">
          <mxGeometry relative="1" as="geometry">
            <mxPoint x="690" y="600" as="sourcePoint" />
            <mxPoint x="660" y="560" as="targetPoint" />
            <Array as="points">
              <mxPoint x="690" y="560" />
            </Array>
          </mxGeometry>
        </mxCell>
        <mxCell id="xP9YJikHqoznOqZrXmcU-99" value="Gestione sottocategorie" style="edgeLabel;html=1;align=center;verticalAlign=middle;resizable=0;points=[];" vertex="1" connectable="0" parent="xP9YJikHqoznOqZrXmcU-98">
          <mxGeometry x="1" y="1" relative="1" as="geometry">
            <mxPoint x="-67" as="offset" />
          </mxGeometry>
        </mxCell>
        <mxCell id="xP9YJikHqoznOqZrXmcU-100" value="" style="rounded=1;orthogonalLoop=1;jettySize=auto;html=1;endArrow=oval;endFill=0;sketch=0;sourcePerimeterSpacing=0;targetPerimeterSpacing=0;endSize=10;exitX=0.5;exitY=0;exitDx=0;exitDy=0;edgeStyle=orthogonalEdgeStyle;curved=0;labelPosition=right;verticalLabelPosition=middle;align=left;verticalAlign=middle;startArrow=box;startFill=0;" edge="1" parent="1">
          <mxGeometry relative="1" as="geometry">
            <mxPoint x="690" y="600" as="sourcePoint" />
            <mxPoint x="720" y="560" as="targetPoint" />
            <Array as="points">
              <mxPoint x="690" y="560" />
            </Array>
          </mxGeometry>
        </mxCell>
        <mxCell id="xP9YJikHqoznOqZrXmcU-101" value="Lista eventi" style="edgeLabel;html=1;align=center;verticalAlign=middle;resizable=0;points=[];" vertex="1" connectable="0" parent="xP9YJikHqoznOqZrXmcU-100">
          <mxGeometry x="1" y="-7" relative="1" as="geometry">
            <mxPoint x="34" y="-7" as="offset" />
          </mxGeometry>
        </mxCell>
        <mxCell id="xP9YJikHqoznOqZrXmcU-102" value="" style="rounded=1;orthogonalLoop=1;jettySize=auto;html=1;endArrow=oval;endFill=0;sketch=0;sourcePerimeterSpacing=0;targetPerimeterSpacing=0;endSize=10;exitX=0.5;exitY=0;exitDx=0;exitDy=0;edgeStyle=orthogonalEdgeStyle;curved=0;startArrow=box;startFill=0;" edge="1" parent="1">
          <mxGeometry relative="1" as="geometry">
            <mxPoint x="690" y="600" as="sourcePoint" />
            <mxPoint x="660" y="545" as="targetPoint" />
            <Array as="points">
              <mxPoint x="690" y="545" />
            </Array>
          </mxGeometry>
        </mxCell>
        <mxCell id="xP9YJikHqoznOqZrXmcU-103" value="Gestione eventi" style="edgeLabel;html=1;align=center;verticalAlign=middle;resizable=0;points=[];" vertex="1" connectable="0" parent="xP9YJikHqoznOqZrXmcU-102">
          <mxGeometry x="1" y="1" relative="1" as="geometry">
            <mxPoint x="-48" as="offset" />
          </mxGeometry>
        </mxCell>
        <mxCell id="xP9YJikHqoznOqZrXmcU-104" value="" style="rounded=1;orthogonalLoop=1;jettySize=auto;html=1;endArrow=oval;endFill=0;sketch=0;sourcePerimeterSpacing=0;targetPerimeterSpacing=0;endSize=10;exitX=0.5;exitY=0;exitDx=0;exitDy=0;edgeStyle=orthogonalEdgeStyle;curved=0;labelPosition=right;verticalLabelPosition=middle;align=left;verticalAlign=middle;startArrow=box;startFill=0;" edge="1" parent="1">
          <mxGeometry relative="1" as="geometry">
            <mxPoint x="690" y="600" as="sourcePoint" />
            <mxPoint x="720" y="545" as="targetPoint" />
            <Array as="points">
              <mxPoint x="690" y="545" />
            </Array>
          </mxGeometry>
        </mxCell>
        <mxCell id="xP9YJikHqoznOqZrXmcU-105" value="Lock evento" style="edgeLabel;html=1;align=center;verticalAlign=middle;resizable=0;points=[];" vertex="1" connectable="0" parent="xP9YJikHqoznOqZrXmcU-104">
          <mxGeometry x="1" y="-7" relative="1" as="geometry">
            <mxPoint x="36" y="-7" as="offset" />
          </mxGeometry>
        </mxCell>
        <mxCell id="xP9YJikHqoznOqZrXmcU-106" value="Web API" style="edgeLabel;html=1;align=center;verticalAlign=middle;resizable=0;points=[];" vertex="1" connectable="0" parent="xP9YJikHqoznOqZrXmcU-104">
          <mxGeometry x="-0.6" y="-2" relative="1" as="geometry">
            <mxPoint x="-2" y="27" as="offset" />
          </mxGeometry>
        </mxCell>
        <mxCell id="xP9YJikHqoznOqZrXmcU-107" value="" style="rounded=1;orthogonalLoop=1;jettySize=auto;html=1;endArrow=oval;endFill=0;sketch=0;sourcePerimeterSpacing=0;targetPerimeterSpacing=0;endSize=10;edgeStyle=orthogonalEdgeStyle;curved=0;startArrow=box;startFill=0;" edge="1" parent="1">
          <mxGeometry relative="1" as="geometry">
            <mxPoint x="690" y="600" as="sourcePoint" />
            <mxPoint x="660" y="530" as="targetPoint" />
            <Array as="points">
              <mxPoint x="690" y="530" />
            </Array>
          </mxGeometry>
        </mxCell>
        <mxCell id="xP9YJikHqoznOqZrXmcU-108" value="Aggiunta Log" style="edgeLabel;html=1;align=center;verticalAlign=middle;resizable=0;points=[];" vertex="1" connectable="0" parent="xP9YJikHqoznOqZrXmcU-107">
          <mxGeometry x="1" y="1" relative="1" as="geometry">
            <mxPoint x="-42" as="offset" />
          </mxGeometry>
        </mxCell>
        <mxCell id="xP9YJikHqoznOqZrXmcU-109" value="" style="rounded=1;orthogonalLoop=1;jettySize=auto;html=1;endArrow=oval;endFill=0;sketch=0;sourcePerimeterSpacing=0;targetPerimeterSpacing=0;endSize=10;edgeStyle=orthogonalEdgeStyle;curved=0;labelPosition=right;verticalLabelPosition=middle;align=left;verticalAlign=middle;startArrow=box;startFill=0;" edge="1" parent="1">
          <mxGeometry relative="1" as="geometry">
            <mxPoint x="690" y="600" as="sourcePoint" />
            <mxPoint x="720" y="530" as="targetPoint" />
            <Array as="points">
              <mxPoint x="690" y="530" />
            </Array>
          </mxGeometry>
        </mxCell>
        <mxCell id="xP9YJikHqoznOqZrXmcU-110" value="Lista Log" style="edgeLabel;html=1;align=center;verticalAlign=middle;resizable=0;points=[];" vertex="1" connectable="0" parent="xP9YJikHqoznOqZrXmcU-109">
          <mxGeometry x="1" y="-7" relative="1" as="geometry">
            <mxPoint x="30" y="-7" as="offset" />
          </mxGeometry>
        </mxCell>
        <mxCell id="xP9YJikHqoznOqZrXmcU-111" value="" style="rounded=1;orthogonalLoop=1;jettySize=auto;html=1;endArrow=oval;endFill=0;sketch=0;sourcePerimeterSpacing=0;targetPerimeterSpacing=0;endSize=10;edgeStyle=orthogonalEdgeStyle;curved=0;labelPosition=right;verticalLabelPosition=middle;align=left;verticalAlign=middle;startArrow=box;startFill=0;" edge="1" parent="1">
          <mxGeometry relative="1" as="geometry">
            <mxPoint x="690" y="600" as="sourcePoint" />
            <mxPoint x="690" y="515" as="targetPoint" />
            <Array as="points">
              <mxPoint x="690" y="515" />
            </Array>
          </mxGeometry>
        </mxCell>
        <mxCell id="xP9YJikHqoznOqZrXmcU-113" value="Gestione preferenze" style="edgeLabel;html=1;align=center;verticalAlign=middle;resizable=0;points=[];" vertex="1" connectable="0" parent="xP9YJikHqoznOqZrXmcU-111">
          <mxGeometry x="0.9529" y="-1" relative="1" as="geometry">
            <mxPoint x="57" y="-2" as="offset" />
          </mxGeometry>
        </mxCell>
      </root>
    </mxGraphModel>
  </diagram>
</mxfile>
